<svg width="34" height="20" viewBox="0 0 34 20" fill="none" xmlns="http://www.w3.org/2000/svg">
    <path d="M0 10C0 4.47715 4.47715 0 10 0H24C29.5228 0 34 4.47715 34 10C34 15.5228 29.5228 20 24 20H10C4.47715 20 0 15.5228 0 10Z"/>
    <path d="M9.64773 6.65909L11.0774 11.0625H8.12432L9.55682 6.65909H9.64773Z" fill="#94ECFF"/>
    <path d="M19.2197 9.89205H20.8901C21.3636 9.89205 21.7537 9.81061 22.0606 9.64773C22.3712 9.48106 22.6022 9.25189 22.7537 8.96023C22.909 8.66477 22.9867 8.32576 22.9867 7.94318C22.9867 7.55682 22.909 7.2197 22.7537 6.93182C22.6022 6.64015 22.3712 6.41477 22.0606 6.25568C21.75 6.0928 21.356 6.01136 20.8787 6.01136H19.2197V9.89205Z"
          fill="#94ECFF"/>
    <path fill-rule="evenodd" clip-rule="evenodd"
          d="M10 0C4.47715 0 0 4.47715 0 10C0 15.5228 4.47715 20 10 20H24C29.5228 20 34 15.5228 34 10C34 4.47715 29.5228 0 24 0H10ZM6.63636 15.6364H4L8.01705 4H11.1875L15.1989 15.6364H12.5625L11.701 12.983H7.49956L6.63636 15.6364ZM16.7594 4V15.6364H19.2197V11.8636H21.2878C22.1818 11.8636 22.9431 11.6989 23.5719 11.3693C24.2045 11.0398 24.6875 10.5795 25.0208 9.98864C25.3541 9.39773 25.5208 8.71591 25.5208 7.94318C25.5208 7.17045 25.356 6.48864 25.0265 5.89773C24.7007 5.30303 24.2272 4.83902 23.606 4.50568C22.9848 4.16856 22.2329 4 21.3503 4H16.7594ZM29.739 15.6364V4H27.2788V15.6364H29.739Z"
          fill="#94ECFF"/>
</svg>
