<svg width="116" height="24" viewBox="0 0 116 24" fill="none" xmlns="http://www.w3.org/2000/svg">
<path d="M55.9973 21.6574C55.7941 21.6574 55.6332 21.6135 55.5146 21.5257C55.396 21.4203 55.3368 21.2885 55.3368 21.1304C55.3368 21.025 55.3791 20.8845 55.4638 20.7088L64.6349 2.81686C64.7873 2.53579 64.9652 2.39526 65.1684 2.39526C65.4055 2.39526 65.5833 2.53579 65.7019 2.81686L74.873 20.7088C74.9577 20.8845 75 21.025 75 21.1304C75 21.2885 74.9407 21.4203 74.8222 21.5257C74.7036 21.6135 74.5427 21.6574 74.3395 21.6574H71.5704C71.1808 21.6574 70.8844 21.4642 70.6812 21.0777L69.4872 18.7062H60.8242L59.681 21.0777C59.5116 21.4642 59.2152 21.6574 58.7918 21.6574H55.9973ZM67.5564 15.1489L65.1684 10.1159L62.8057 15.1489H67.5564Z" fill="white"/>
<path d="M42.2911 20.8669C42.2911 21.1129 42.2233 21.3061 42.0878 21.4466C41.9523 21.5872 41.766 21.6574 41.5289 21.6574H39.0392C38.8021 21.6574 38.6158 21.5872 38.4803 21.4466C38.3449 21.3061 38.2771 21.1129 38.2771 20.8669V3.18577C38.2771 2.93983 38.3449 2.7466 38.4803 2.60606C38.6158 2.46552 38.8021 2.39526 39.0392 2.39526H41.5289C41.766 2.39526 41.9523 2.46552 42.0878 2.60606C42.2233 2.7466 42.2911 2.93983 42.2911 3.18577V10.4321L49.1503 2.81686C49.4044 2.53579 49.7177 2.39526 50.0903 2.39526H53.2151C53.4183 2.39526 53.5707 2.43917 53.6724 2.52701C53.7909 2.59728 53.8502 2.70268 53.8502 2.84321C53.8502 3.01888 53.7655 3.19455 53.5961 3.37022L46.8639 10.5639L54.155 20.6825C54.2736 20.8581 54.3329 21.025 54.3329 21.1831C54.3329 21.3237 54.2736 21.4379 54.155 21.5257C54.0534 21.6135 53.8925 21.6574 53.6724 21.6574H50.4968C50.0734 21.6574 49.76 21.4993 49.5568 21.1831L44.0948 13.4625L42.2911 15.4124V20.8669Z" fill="white"/>
<path d="M12.6515 2.39526C12.8886 2.39526 13.0749 2.46552 13.2104 2.60606C13.3459 2.7466 13.4137 2.93983 13.4137 3.18577V14.7273C13.4137 16.2029 13.1088 17.4941 12.4991 18.6008C11.9063 19.6899 11.068 20.5244 9.98404 21.1041C8.90011 21.7014 7.63835 22 6.19875 22C4.8777 22 3.70062 21.7101 2.66749 21.1304C1.63437 20.5507 0.821418 19.769 0.228642 18.7852C0.076214 18.5569 0 18.3285 0 18.1001C0 17.8015 0.160896 17.5731 0.482689 17.415L2.66749 16.4664C2.83686 16.3961 2.95541 16.361 3.02316 16.361C3.15865 16.361 3.26874 16.4049 3.35342 16.4928C3.45504 16.563 3.56513 16.6772 3.68368 16.8353C4.31033 17.8191 5.14869 18.3109 6.19875 18.3109C7.35043 18.3109 8.16338 17.9859 8.6376 17.336C9.12875 16.6684 9.37433 15.7989 9.37433 14.7273V3.18577C9.37433 2.93983 9.44208 2.7466 9.57757 2.60606C9.71306 2.46552 9.89936 2.39526 10.1365 2.39526H12.6515Z" fill="white"/>
<path d="M30.3885 11.7958C30.4096 12.0307 30.2169 12.2222 29.9817 12.2222C29.7464 12.2222 29.5581 12.0305 29.5323 11.7961C29.4695 11.2246 29.2808 10.6723 28.9779 10.18C28.675 9.68762 28.2673 9.27073 27.7861 8.95791C27.5887 8.8296 27.5023 8.57484 27.6079 8.3641C27.7135 8.15336 27.9708 8.06675 28.1707 8.19114C28.792 8.57773 29.3172 9.10447 29.7031 9.73166C30.089 10.3588 30.3228 11.0657 30.3885 11.7958Z" fill="white"/>
<path fill-rule="evenodd" clip-rule="evenodd" d="M27.0738 21.9212C32.0012 21.3011 35.8125 17.0956 35.8125 12C35.8125 6.47715 31.3353 2 25.8125 2C20.2897 2 15.8125 6.47715 15.8125 12C15.8125 17.1175 19.6565 21.3371 24.6146 21.929L24.3715 20.0061C24.3615 19.9174 24.3217 19.8385 24.2521 19.7694L23.0882 18.6157C22.9986 18.5269 22.9589 18.3889 22.9887 18.2706C23.8641 18.665 24.8291 18.8819 25.8437 18.8819C26.8584 18.8819 27.8234 18.665 28.6988 18.2706C28.7286 18.3889 28.6889 18.5269 28.5993 18.6157L27.4354 19.7694C27.3658 19.8385 27.326 19.9174 27.316 20.0061L27.0738 21.9212ZM25.8437 6.0625C22.551 6.0625 19.875 8.71514 19.875 11.9792C19.875 14.4247 21.3772 16.5251 23.506 17.4324C24.2223 17.7282 25.0181 17.8958 25.8437 17.8958C26.6694 17.8958 27.4652 17.7282 28.1815 17.4324C30.3103 16.5251 31.8125 14.4247 31.8125 11.9792C31.8125 8.71514 29.1365 6.0625 25.8437 6.0625Z" fill="white"/>
<path d="M79 12C79 6.47716 83.4772 2 89 2H106C111.523 2 116 6.47716 116 12C116 17.5229 111.523 22 106 22H89C83.4772 22 79 17.5229 79 12Z" fill="#94ECFF"/>
<path d="M109.8 5.86364V17.5H107.339V5.86364H109.8Z" fill="#004540"/>
<path d="M96.9801 17.5V5.86364H101.571C102.454 5.86364 103.205 6.0322 103.827 6.36932C104.448 6.70265 104.921 7.16667 105.247 7.76137C105.577 8.35228 105.741 9.03409 105.741 9.80682C105.741 10.5795 105.575 11.2614 105.241 11.8523C104.908 12.4432 104.425 12.9034 103.793 13.233C103.164 13.5625 102.402 13.7273 101.509 13.7273H98.5824V11.7557H101.111C101.584 11.7557 101.974 11.6742 102.281 11.5114C102.592 11.3447 102.823 11.1155 102.974 10.8239C103.13 10.5284 103.207 10.1894 103.207 9.80682C103.207 9.42046 103.13 9.08334 102.974 8.79546C102.823 8.50379 102.592 8.27841 102.281 8.11932C101.971 7.95644 101.577 7.875 101.099 7.875H99.4403V17.5H96.9801Z" fill="#004540"/>
<path d="M87.017 17.5H84.3807L88.3977 5.86364H91.5682L95.5795 17.5H92.9432L90.0284 8.52273H89.9375L87.017 17.5ZM86.8523 12.9261H93.0795V14.8466H86.8523V12.9261Z" fill="#004540"/>
</svg>
