<svg width="75" height="20" viewBox="0 0 75 20" fill="none" xmlns="http://www.w3.org/2000/svg">
<path d="M55.9973 19.6574C55.7941 19.6574 55.6332 19.6135 55.5146 19.5257C55.396 19.4203 55.3368 19.2885 55.3368 19.1304C55.3368 19.025 55.3791 18.8845 55.4638 18.7088L64.6349 0.816863C64.7873 0.535792 64.9651 0.395257 65.1684 0.395257C65.4055 0.395257 65.5833 0.535792 65.7019 0.816863L74.873 18.7088C74.9577 18.8845 75 19.025 75 19.1304C75 19.2885 74.9407 19.4203 74.8222 19.5257C74.7036 19.6135 74.5427 19.6574 74.3395 19.6574H71.5704C71.1808 19.6574 70.8844 19.4642 70.6812 19.0777L69.4872 16.7062H60.8242L59.681 19.0777C59.5116 19.4642 59.2152 19.6574 58.7918 19.6574H55.9973ZM67.5564 13.1489L65.1684 8.11594L62.8058 13.1489H67.5564Z" fill="white"/>
<path d="M42.2911 18.8669C42.2911 19.1129 42.2233 19.3061 42.0878 19.4466C41.9523 19.5872 41.766 19.6574 41.5289 19.6574H39.0392C38.8021 19.6574 38.6158 19.5872 38.4803 19.4466C38.3449 19.3061 38.2771 19.1129 38.2771 18.8669V1.18577C38.2771 0.939832 38.3449 0.746596 38.4803 0.606059C38.6158 0.465524 38.8021 0.395257 39.0392 0.395257H41.5289C41.766 0.395257 41.9523 0.465524 42.0878 0.606059C42.2233 0.746596 42.2911 0.939832 42.2911 1.18577V8.43215L49.1503 0.816863C49.4044 0.535792 49.7177 0.395257 50.0903 0.395257H53.2151C53.4183 0.395257 53.5707 0.439174 53.6724 0.527009C53.7909 0.597276 53.8502 0.702677 53.8502 0.843214C53.8502 1.01888 53.7655 1.19455 53.5961 1.37022L46.8639 8.5639L54.155 18.6825C54.2736 18.8581 54.3329 19.025 54.3329 19.1831C54.3329 19.3237 54.2736 19.4379 54.155 19.5257C54.0534 19.6135 53.8925 19.6574 53.6724 19.6574H50.4968C50.0734 19.6574 49.76 19.4993 49.5568 19.1831L44.0948 11.4625L42.2911 13.4124V18.8669Z" fill="white"/>
<path d="M12.6515 0.395257C12.8886 0.395257 13.0749 0.465524 13.2104 0.606059C13.3459 0.746596 13.4137 0.939832 13.4137 1.18577V12.7273C13.4137 14.2029 13.1088 15.4941 12.4991 16.6008C11.9063 17.6899 11.068 18.5244 9.98405 19.1041C8.90011 19.7014 7.63835 20 6.19875 20C4.8777 20 3.70062 19.7101 2.66749 19.1304C1.63437 18.5507 0.821418 17.769 0.228642 16.7852C0.076214 16.5569 0 16.3285 0 16.1001C0 15.8015 0.160896 15.5731 0.482689 15.415L2.66749 14.4664C2.83686 14.3961 2.95541 14.361 3.02316 14.361C3.15865 14.361 3.26874 14.4049 3.35342 14.4928C3.45504 14.563 3.56513 14.6772 3.68368 14.8353C4.31033 15.8191 5.14869 16.3109 6.19875 16.3109C7.35043 16.3109 8.16337 15.9859 8.6376 15.336C9.12875 14.6684 9.37433 13.7989 9.37433 12.7273V1.18577C9.37433 0.939832 9.44208 0.746596 9.57757 0.606059C9.71306 0.465524 9.89936 0.395257 10.1365 0.395257H12.6515Z" fill="white"/>
<path d="M30.3885 9.79577C30.4096 10.0307 30.2169 10.2222 29.9817 10.2222C29.7464 10.2222 29.5581 10.0305 29.5323 9.79605C29.4695 9.22458 29.2808 8.6723 28.9779 8.17996C28.675 7.68761 28.2673 7.27073 27.7861 6.95791C27.5887 6.8296 27.5023 6.57484 27.6079 6.3641C27.7135 6.15336 27.9708 6.06675 28.1707 6.19114C28.792 6.57772 29.3172 7.10447 29.7031 7.73166C30.089 8.35883 30.3228 9.06574 30.3885 9.79577Z" fill="white"/>
<path fill-rule="evenodd" clip-rule="evenodd" d="M27.0738 19.9212C32.0012 19.3011 35.8125 15.0956 35.8125 10C35.8125 4.47715 31.3353 0 25.8125 0C20.2897 0 15.8125 4.47715 15.8125 10C15.8125 15.1175 19.6565 19.3371 24.6146 19.929L24.3715 18.0061C24.3615 17.9174 24.3217 17.8385 24.2521 17.7694L23.0882 16.6157C22.9986 16.5269 22.9589 16.3889 22.9887 16.2706C23.8641 16.665 24.8291 16.8819 25.8438 16.8819C26.8584 16.8819 27.8234 16.665 28.6988 16.2706C28.7286 16.3889 28.6889 16.5269 28.5993 16.6157L27.4354 17.7694C27.3658 17.8385 27.326 17.9174 27.316 18.0061L27.0738 19.9212ZM25.8438 4.0625C22.551 4.0625 19.875 6.71514 19.875 9.97917C19.875 12.4247 21.3772 14.5251 23.506 15.4324C24.2223 15.7282 25.0181 15.8958 25.8438 15.8958C26.6694 15.8958 27.4652 15.7282 28.1815 15.4324C30.3103 14.5251 31.8125 12.4247 31.8125 9.97917C31.8125 6.71514 29.1365 4.0625 25.8438 4.0625Z" fill="white"/>
</svg>
