<svg width="18" height="18" viewBox="0 0 18 18" fill="none" xmlns="http://www.w3.org/2000/svg">
    <path d="M12.7925 17.125H4.12522C2.02948 17.125 0.875 15.9705 0.875 13.8748V5.20754C0.875 3.1118 2.02948 1.95733 4.12522 1.95733H6.72539C7.08421 1.95733 7.37543 2.24855 7.37543 2.60737C7.37543 2.96619 7.08421 3.25741 6.72539 3.25741H4.12522C2.75839 3.25741 2.17509 3.84072 2.17509 5.20754V13.8748C2.17509 15.2416 2.75839 15.8249 4.12522 15.8249H12.7925C14.1593 15.8249 14.7426 15.2416 14.7426 13.8748V11.2746C14.7426 10.9158 15.0338 10.6246 15.3926 10.6246C15.7515 10.6246 16.0427 10.9158 16.0427 11.2746V13.8748C16.0427 15.9705 14.8882 17.125 12.7925 17.125ZM16.7621 2.63337L15.3666 1.23796C14.8726 0.752591 14.0839 0.752573 13.5898 1.24661L12.4198 2.42536L15.5747 5.58023L16.7534 4.41014C17.2474 3.91611 17.2474 3.1274 16.7621 2.63337ZM11.501 3.34409L5.85866 9.01248V12.1413H8.98753L14.6559 6.49895L11.501 3.34409Z"
          fill="#fff"/>
</svg>
