<svg width="128" height="128" viewBox="0 0 128 128" fill="none" xmlns="http://www.w3.org/2000/svg">
<g clip-path="url(#clip0_2069_2010)">
<g filter="url(#filter0_d_2069_2010)">
<rect x="16" y="7" width="96" height="96" rx="20" fill="url(#paint0_linear_2069_2010)"/>
<path d="M80.4736 54.3904C80.5497 55.239 79.856 55.9311 79.009 55.9311C78.162 55.9311 77.4841 55.2383 77.3912 54.3914C77.1651 52.3268 76.486 50.3315 75.3955 48.5528C74.3049 46.774 72.8374 45.2679 71.105 44.1377C70.3943 43.6741 70.0833 42.7537 70.4635 41.9924C70.8437 41.231 71.77 40.9181 72.4896 41.3675C74.7262 42.7642 76.617 44.6672 78.0061 46.9331C79.3953 49.199 80.237 51.7529 80.4736 54.3904Z" fill="white"/>
<path fill-rule="evenodd" clip-rule="evenodd" d="M68.5408 90.9719C86.2794 88.7314 100 73.5378 100 55.1283C100 35.1752 83.8822 19 64 19C44.1178 19 28 35.1752 28 55.1283C28 73.6168 41.8385 88.8617 59.6877 91L58.8123 84.0529C58.7765 83.7323 58.6333 83.4473 58.3826 83.1979L54.1924 79.0296C53.8701 78.709 53.7269 78.2102 53.8343 77.7827C56.9858 79.2078 60.4596 79.9915 64.1125 79.9915C67.7654 79.9915 71.2392 79.2078 74.3907 77.7827C74.4981 78.2102 74.3549 78.709 74.0326 79.0296L69.8424 83.1979C69.5917 83.4473 69.4485 83.7323 69.4127 84.0529L68.5408 90.9719ZM64.1125 33.6771C52.2586 33.6771 42.625 43.2606 42.625 55.053C42.625 63.8884 48.0328 71.4768 55.6966 74.7544C58.2752 75.8232 61.1401 76.4289 64.1125 76.4289C67.0849 76.4289 69.9498 75.8232 72.5283 74.7544C80.1922 71.4768 85.6 63.8884 85.6 55.053C85.6 43.2606 75.9664 33.6771 64.1125 33.6771Z" fill="white"/>
</g>
<rect x="38" y="98.5" width="52" height="20" rx="10" fill="#004540"/>
<path d="M46.6518 111.626H48.3601C48.9593 111.626 49.4004 111.516 49.6832 111.295C49.9698 111.074 50.1131 110.766 50.1131 110.372C50.1131 110.086 50.0442 109.839 49.9065 109.633C49.7688 109.423 49.5734 109.262 49.3203 109.15C49.0672 109.034 48.7639 108.976 48.4104 108.976H46.6518V111.626Z" fill="#B8E0DD"/>
<path d="M46.6518 107.243H48.1815C48.4829 107.243 48.7509 107.194 48.9854 107.097C49.2198 106.999 49.4022 106.858 49.5325 106.673C49.6665 106.488 49.7335 106.266 49.7335 106.005C49.7335 105.632 49.5976 105.339 49.3259 105.125C49.0542 104.912 48.6876 104.805 48.2261 104.805H46.6518V107.243Z" fill="#B8E0DD"/>
<path d="M78.9558 105.473L80.2283 109.416H77.5966L78.8665 105.473H78.9558Z" fill="#B8E0DD"/>
<path fill-rule="evenodd" clip-rule="evenodd" d="M42.0249 98.5C39.802 98.5 38 100.302 38 102.525V114.475C38 116.698 39.802 118.5 42.0249 118.5H85.9751C88.198 118.5 90 116.698 90 114.475V102.525C90 100.302 88.198 98.5 85.9751 98.5H42.0249ZM43.8883 113.793V102.67H48.656C49.512 102.67 50.2285 102.788 50.8053 103.023C51.3859 103.259 51.8214 103.588 52.1117 104.012C52.4057 104.435 52.5527 104.926 52.5527 105.484C52.5527 105.907 52.4615 106.286 52.2792 106.619C52.0968 106.948 51.8456 107.222 51.5255 107.439C51.2054 107.656 50.8351 107.808 50.4145 107.895V108.004C50.876 108.025 51.3022 108.147 51.693 108.368C52.0875 108.588 52.4039 108.896 52.642 109.291C52.8802 109.682 52.9993 110.145 52.9993 110.681C52.9993 111.279 52.843 111.813 52.5304 112.283C52.2178 112.751 51.7656 113.12 51.1738 113.391C50.582 113.659 49.8637 113.793 49.0189 113.793H43.8883ZM54.4851 102.67V113.793H62.4572V111.61H57.2486V109.324H62.0497V107.135H57.2486V104.854H62.4572V102.67H54.4851ZM63.9711 104.854V102.67H73.6348V104.854H70.168V113.793H67.4436V104.854H63.9711ZM76.1868 113.793H73.2167L77.0744 102.67H80.7534L84.6111 113.793H81.6411L80.8874 111.458H76.9389L76.1868 113.793Z" fill="#B8E0DD"/>
</g>
<defs>
<filter id="filter0_d_2069_2010" x="-9" y="-13" width="146" height="146" filterUnits="userSpaceOnUse" color-interpolation-filters="sRGB">
<feFlood flood-opacity="0" result="BackgroundImageFix"/>
<feColorMatrix in="SourceAlpha" type="matrix" values="0 0 0 0 0 0 0 0 0 0 0 0 0 0 0 0 0 0 127 0" result="hardAlpha"/>
<feOffset dy="5"/>
<feGaussianBlur stdDeviation="12.5"/>
<feComposite in2="hardAlpha" operator="out"/>
<feColorMatrix type="matrix" values="0 0 0 0 0.00392157 0 0 0 0 0.266667 0 0 0 0 0.247059 0 0 0 0.1 0"/>
<feBlend mode="normal" in2="BackgroundImageFix" result="effect1_dropShadow_2069_2010"/>
<feBlend mode="normal" in="SourceGraphic" in2="effect1_dropShadow_2069_2010" result="shape"/>
</filter>
<linearGradient id="paint0_linear_2069_2010" x1="64" y1="7" x2="64" y2="103" gradientUnits="userSpaceOnUse">
<stop stop-color="#004540"/>
<stop offset="1" stop-color="#003733"/>
</linearGradient>
<clipPath id="clip0_2069_2010">
<rect width="128" height="128" fill="white"/>
</clipPath>
</defs>
</svg>
